G04 EAGLE Gerber RS-274X export*
G75*
%MOMM*%
%FSLAX34Y34*%
%LPD*%
%INBottom Copper*%
%IPPOS*%
%AMOC8*
5,1,8,0,0,1.08239X$1,22.5*%
G01*
%ADD10P,1.420962X8X202.500000*%
%ADD11C,1.312800*%
%ADD12C,1.300000*%
%ADD13R,2.030000X2.030000*%
%ADD14C,2.030000*%
%ADD15R,1.500000X1.500000*%
%ADD16C,1.500000*%
%ADD17C,1.109600*%
%ADD18R,1.300000X1.300000*%
%ADD19C,1.300000*%
%ADD20C,1.524000*%
%ADD21C,1.700000*%
%ADD22P,1.420962X8X112.500000*%
%ADD23C,0.812800*%
%ADD24R,1.412800X1.412800*%
%ADD25C,0.711200*%


D10*
X63500Y698500D03*
X38100Y698500D03*
X127000Y558800D03*
X101600Y558800D03*
D11*
X533400Y273264D02*
X533400Y260136D01*
X533400Y336336D02*
X533400Y349464D01*
X508000Y349464D02*
X508000Y336336D01*
X508000Y273264D02*
X508000Y260136D01*
X412964Y431800D02*
X399836Y431800D01*
X336764Y431800D02*
X323636Y431800D01*
X444500Y437936D02*
X444500Y451064D01*
X444500Y374864D02*
X444500Y361736D01*
X455930Y539536D02*
X455930Y552664D01*
X455930Y476464D02*
X455930Y463336D01*
X467360Y451064D02*
X467360Y437936D01*
X467360Y374864D02*
X467360Y361736D01*
X330200Y336764D02*
X330200Y323636D01*
X355600Y323636D02*
X355600Y336764D01*
X355600Y399836D02*
X355600Y412964D01*
X330200Y412964D02*
X330200Y399836D01*
X381000Y336764D02*
X381000Y323636D01*
X406400Y323636D02*
X406400Y336764D01*
X381000Y399836D02*
X381000Y412964D01*
X406400Y412964D02*
X406400Y399836D01*
X330200Y133564D02*
X330200Y120436D01*
X355600Y120436D02*
X355600Y133564D01*
X355600Y196636D02*
X355600Y209764D01*
X330200Y209764D02*
X330200Y196636D01*
X381000Y133564D02*
X381000Y120436D01*
X406400Y120436D02*
X406400Y133564D01*
X381000Y196636D02*
X381000Y209764D01*
X406400Y209764D02*
X406400Y196636D01*
X285964Y533400D02*
X272836Y533400D01*
X272836Y558800D02*
X285964Y558800D01*
X285964Y685800D02*
X272836Y685800D01*
X209764Y685800D02*
X196636Y685800D01*
X272836Y584200D02*
X285964Y584200D01*
X285964Y609600D02*
X272836Y609600D01*
X272836Y660400D02*
X285964Y660400D01*
X285964Y635000D02*
X272836Y635000D01*
X209764Y660400D02*
X196636Y660400D01*
X196636Y635000D02*
X209764Y635000D01*
X209764Y609600D02*
X196636Y609600D01*
X196636Y584200D02*
X209764Y584200D01*
X209764Y558800D02*
X196636Y558800D01*
X196636Y533400D02*
X209764Y533400D01*
D12*
X361800Y685800D02*
X374800Y685800D01*
X374800Y660400D02*
X361800Y660400D01*
X361800Y635000D02*
X374800Y635000D01*
X374800Y609600D02*
X361800Y609600D01*
X438000Y609600D02*
X451000Y609600D01*
X451000Y635000D02*
X438000Y635000D01*
X438000Y685800D02*
X451000Y685800D01*
D13*
X508000Y748900D03*
D14*
X508000Y952100D03*
X50800Y850500D03*
X50800Y748900D03*
X50800Y952100D03*
D15*
X117200Y660400D03*
D16*
X117200Y635000D03*
X117200Y609600D03*
D11*
X330200Y666536D02*
X330200Y679664D01*
X330200Y603464D02*
X330200Y590336D01*
X323636Y254000D02*
X336764Y254000D01*
X399836Y254000D02*
X412964Y254000D01*
X431800Y260136D02*
X431800Y273264D01*
X431800Y336336D02*
X431800Y349464D01*
X412964Y508000D02*
X399836Y508000D01*
X336764Y508000D02*
X323636Y508000D01*
X399836Y457200D02*
X412964Y457200D01*
X336764Y457200D02*
X323636Y457200D01*
X431800Y539536D02*
X431800Y552664D01*
X431800Y476464D02*
X431800Y463336D01*
X412964Y482600D02*
X399836Y482600D01*
X336764Y482600D02*
X323636Y482600D01*
X399836Y533400D02*
X412964Y533400D01*
X336764Y533400D02*
X323636Y533400D01*
X304800Y412964D02*
X304800Y399836D01*
X304800Y336764D02*
X304800Y323636D01*
D17*
X392430Y300990D03*
X367030Y300990D03*
X341630Y300990D03*
D11*
X482600Y247864D02*
X482600Y234736D01*
X482600Y310936D02*
X482600Y324064D01*
X412964Y50800D02*
X399836Y50800D01*
X336764Y50800D02*
X323636Y50800D01*
X323636Y76200D02*
X336764Y76200D01*
X399836Y76200D02*
X412964Y76200D01*
X336764Y101600D02*
X323636Y101600D01*
X399836Y101600D02*
X412964Y101600D01*
X412964Y228600D02*
X399836Y228600D01*
X336764Y228600D02*
X323636Y228600D01*
D18*
X63500Y647700D03*
D19*
X63500Y622300D03*
X63500Y596900D03*
X63500Y571500D03*
D11*
X31964Y457200D02*
X18836Y457200D01*
X18836Y431800D02*
X31964Y431800D01*
X31964Y406400D02*
X18836Y406400D01*
X18836Y381000D02*
X31964Y381000D01*
X31964Y355600D02*
X18836Y355600D01*
X18836Y330200D02*
X31964Y330200D01*
X31964Y304800D02*
X18836Y304800D01*
X18836Y279400D02*
X31964Y279400D01*
X31964Y254000D02*
X18836Y254000D01*
X18836Y228600D02*
X31964Y228600D01*
X31964Y203200D02*
X18836Y203200D01*
X18836Y177800D02*
X31964Y177800D01*
X31964Y152400D02*
X18836Y152400D01*
X18836Y127000D02*
X31964Y127000D01*
X31964Y101600D02*
X18836Y101600D01*
X272836Y101600D02*
X285964Y101600D01*
X285964Y127000D02*
X272836Y127000D01*
X272836Y152400D02*
X285964Y152400D01*
X285964Y177800D02*
X272836Y177800D01*
X272836Y203200D02*
X285964Y203200D01*
X285964Y228600D02*
X272836Y228600D01*
X272836Y254000D02*
X285964Y254000D01*
X285964Y279400D02*
X272836Y279400D01*
X272836Y304800D02*
X285964Y304800D01*
X285964Y330200D02*
X272836Y330200D01*
X272836Y355600D02*
X285964Y355600D01*
X285964Y381000D02*
X272836Y381000D01*
X272836Y406400D02*
X285964Y406400D01*
X285964Y431800D02*
X272836Y431800D01*
X272836Y457200D02*
X285964Y457200D01*
D20*
X513080Y165100D02*
X528320Y165100D01*
X528320Y139700D02*
X513080Y139700D01*
X513080Y431800D02*
X528320Y431800D01*
X528320Y406400D02*
X513080Y406400D01*
X513080Y381000D02*
X528320Y381000D01*
X528320Y457200D02*
X513080Y457200D01*
D21*
X509000Y642900D03*
X509000Y677900D03*
X509000Y554000D03*
X509000Y589000D03*
D20*
X342900Y579120D02*
X342900Y563880D01*
X317500Y563880D02*
X317500Y579120D01*
D11*
X304800Y590336D02*
X304800Y603464D01*
X304800Y666536D02*
X304800Y679664D01*
X304800Y539964D02*
X304800Y526836D01*
X304800Y463764D02*
X304800Y450636D01*
D22*
X381000Y558800D03*
X381000Y584200D03*
D20*
X241300Y109220D02*
X241300Y93980D01*
X215900Y93980D02*
X215900Y109220D01*
D11*
X457200Y336336D02*
X457200Y349464D01*
X457200Y273264D02*
X457200Y260136D01*
D20*
X139700Y33020D02*
X139700Y17780D01*
X114300Y17780D02*
X114300Y33020D01*
X88900Y33020D02*
X88900Y17780D01*
X165100Y17780D02*
X165100Y33020D01*
D23*
X444500Y635000D02*
X482600Y635000D01*
X501100Y635000D01*
X509000Y642900D01*
X508000Y787400D02*
X508000Y952100D01*
X508000Y787400D02*
X482600Y762000D01*
X482600Y635000D01*
X509000Y677900D02*
X509000Y747900D01*
X508000Y748900D01*
X523064Y648726D02*
X523064Y637075D01*
X509000Y662790D02*
X509000Y677900D01*
X509000Y623011D02*
X509000Y589000D01*
X523064Y648726D02*
X509000Y662790D01*
X523064Y637075D02*
X509000Y623011D01*
X368300Y660400D02*
X355600Y673100D01*
X330200Y673100D01*
X279400Y127000D02*
X330200Y76200D01*
X79100Y596900D02*
X63500Y596900D01*
X79100Y596900D02*
X117200Y635000D01*
X63500Y596900D02*
X63500Y571500D01*
X25400Y825100D02*
X50800Y850500D01*
X25400Y825100D02*
X25400Y774700D01*
D24*
X88900Y127000D03*
D23*
X279400Y127000D01*
X190500Y774700D02*
X25400Y774700D01*
X533400Y177800D02*
X520700Y165100D01*
X533400Y177800D02*
X533400Y241300D01*
X533400Y266700D01*
X279400Y685800D02*
X190500Y774700D01*
X406400Y533400D02*
X406400Y508000D01*
X406400Y533400D02*
X406400Y546100D01*
X406400Y596900D01*
X393700Y609600D01*
X368300Y609600D01*
X304800Y685800D02*
X279400Y685800D01*
D24*
X88900Y266700D03*
D23*
X431800Y266700D01*
X431800Y546100D02*
X406400Y546100D01*
X101600Y558800D02*
X76200Y558800D01*
X63500Y571500D01*
X431800Y266700D02*
X457200Y241300D01*
X482600Y241300D01*
X88900Y127000D02*
X25400Y127000D01*
X88900Y127000D02*
X88900Y101600D01*
X139700Y50800D01*
X139700Y25400D01*
X38100Y698500D02*
X25400Y711200D01*
X25400Y774700D01*
X482600Y241300D02*
X533400Y241300D01*
X368300Y609600D02*
X368300Y635000D01*
X304800Y673100D02*
X304800Y685800D01*
X341216Y685800D02*
X368300Y685800D01*
X341216Y685800D02*
X335224Y691792D01*
X325176Y691792D01*
X319184Y685800D01*
X304800Y685800D01*
X386864Y665397D02*
X386864Y655403D01*
X368300Y636839D02*
X368300Y635000D01*
X368300Y636839D02*
X386864Y655403D01*
X368300Y683961D02*
X368300Y685800D01*
X368300Y683961D02*
X386864Y665397D01*
X533781Y444984D02*
X541504Y437261D01*
X541504Y426339D01*
X533781Y418616D01*
X532916Y444984D02*
X520700Y457200D01*
X532916Y444984D02*
X533781Y444984D01*
X533781Y418616D02*
X532916Y418616D01*
X520700Y406400D01*
X533781Y394184D02*
X541504Y386461D01*
X541504Y375539D01*
X532916Y394184D02*
X520700Y406400D01*
X532916Y394184D02*
X533781Y394184D01*
X520700Y354735D02*
X520700Y330200D01*
X520700Y354735D02*
X541504Y375539D01*
X482600Y292100D02*
X482600Y241300D01*
X482600Y292100D02*
X520700Y330200D01*
X51436Y685164D02*
X38100Y698500D01*
X51436Y685164D02*
X51436Y638895D01*
X55331Y635000D01*
X117200Y635000D01*
D24*
X114300Y101600D03*
X114300Y241300D03*
D23*
X317500Y241300D01*
X330200Y254000D01*
D24*
X114300Y533400D03*
D23*
X127000Y533400D01*
X203200Y533400D01*
X215900Y101600D02*
X114300Y101600D01*
X165100Y50800D01*
X165100Y25400D01*
X127000Y558800D02*
X127000Y599800D01*
X117200Y609600D01*
X127000Y558800D02*
X127000Y533400D01*
X215900Y101600D02*
X215900Y88900D01*
X254000Y50800D01*
X330200Y50800D01*
D25*
X129756Y629799D02*
X129756Y640201D01*
X117200Y617243D02*
X117200Y609600D01*
X117200Y617243D02*
X129756Y629799D01*
X122257Y647700D02*
X63500Y647700D01*
X122257Y647700D02*
X129756Y640201D01*
D23*
X328220Y203200D02*
X330200Y203200D01*
D24*
X101600Y190500D03*
D23*
X304800Y431800D02*
X330200Y457200D01*
X292100Y393700D02*
X101600Y393700D01*
D24*
X101600Y393700D03*
D23*
X79100Y698500D02*
X63500Y698500D01*
X79100Y698500D02*
X117200Y660400D01*
X101600Y190500D02*
X315520Y190500D01*
X328220Y203200D01*
X304800Y406400D02*
X304800Y431800D01*
X304800Y406400D02*
X292100Y393700D01*
X304800Y406400D02*
X330200Y406400D01*
X63500Y736200D02*
X50800Y748900D01*
X63500Y736200D02*
X63500Y698500D01*
X12700Y914000D02*
X50800Y952100D01*
X12700Y914000D02*
X12700Y698500D01*
D24*
X12700Y698500D03*
X76200Y292100D03*
X76200Y165100D03*
D23*
X375976Y311508D02*
X386024Y311508D01*
X362427Y312102D02*
X355918Y305593D01*
X355918Y305118D01*
X375382Y312102D02*
X375976Y311508D01*
X375382Y312102D02*
X362427Y312102D01*
X404716Y330200D02*
X406400Y330200D01*
X404716Y330200D02*
X386024Y311508D01*
X352742Y301942D02*
X352742Y296387D01*
X346233Y289878D01*
X316584Y292100D02*
X76200Y292100D01*
X318806Y289878D02*
X346233Y289878D01*
X318806Y289878D02*
X316584Y292100D01*
X352742Y301942D02*
X355918Y305118D01*
X375976Y108308D02*
X386024Y108308D01*
X375976Y108308D02*
X368872Y115412D01*
X368872Y138212D01*
X404716Y127000D02*
X406400Y127000D01*
X404716Y127000D02*
X386024Y108308D01*
X341984Y165100D02*
X76200Y165100D01*
X341984Y165100D02*
X368872Y138212D01*
X406400Y76200D02*
X406400Y50800D01*
X355600Y114300D02*
X355600Y127000D01*
X355600Y114300D02*
X393700Y76200D01*
X406400Y76200D01*
X381000Y127000D02*
X381000Y139700D01*
X342900Y177800D01*
X279400Y177800D01*
X330200Y127000D02*
X330200Y101600D01*
X419100Y139700D02*
X520700Y139700D01*
X419100Y114300D02*
X406400Y101600D01*
X419100Y114300D02*
X419100Y139700D01*
X406400Y152400D01*
X406400Y203200D01*
X406400Y228600D02*
X381000Y203200D01*
X355600Y203200D01*
X330200Y228600D02*
X304800Y203200D01*
X279400Y203200D01*
X381000Y228600D02*
X406400Y254000D01*
X381000Y228600D02*
X330200Y228600D01*
X533400Y292100D02*
X533400Y342900D01*
X533400Y292100D02*
X508000Y266700D01*
X508000Y342900D02*
X508000Y368300D01*
X520700Y381000D01*
X411424Y348892D02*
X401376Y348892D01*
X411424Y348892D02*
X417416Y342900D01*
X382684Y330200D02*
X381000Y330200D01*
X382684Y330200D02*
X401376Y348892D01*
X450492Y324208D02*
X462224Y324208D01*
X480916Y342900D02*
X508000Y342900D01*
X480916Y342900D02*
X462224Y324208D01*
X450492Y324208D02*
X431800Y342900D01*
X417416Y342900D01*
X368300Y368300D02*
X330200Y330200D01*
X368300Y368300D02*
X444500Y368300D01*
X467360Y458470D02*
X455930Y469900D01*
X467360Y458470D02*
X467360Y444500D01*
X406400Y431800D02*
X406400Y406400D01*
X431800Y469900D02*
X431800Y521970D01*
X455930Y546100D01*
X431800Y457200D02*
X406400Y431800D01*
X431800Y457200D02*
X431800Y469900D01*
X381000Y457200D02*
X330200Y508000D01*
X381000Y457200D02*
X406400Y457200D01*
X381000Y457200D02*
X381000Y406400D01*
X411424Y387708D02*
X418528Y394812D01*
X411424Y387708D02*
X401376Y387708D01*
X418528Y418528D02*
X444500Y444500D01*
X382684Y406400D02*
X381000Y406400D01*
X418528Y394812D02*
X418528Y418528D01*
X401376Y387708D02*
X382684Y406400D01*
X342328Y394812D02*
X335224Y387708D01*
X342328Y394812D02*
X342328Y417988D01*
X311508Y387708D02*
X279400Y355600D01*
X330200Y430116D02*
X330200Y431800D01*
X335224Y387708D02*
X311508Y387708D01*
X342328Y417988D02*
X330200Y430116D01*
X381000Y482600D02*
X330200Y533400D01*
X381000Y482600D02*
X406400Y482600D01*
X279400Y457200D02*
X279400Y533400D01*
X299776Y552092D02*
X309824Y552092D01*
X281084Y533400D02*
X279400Y533400D01*
X328516Y533400D02*
X330200Y533400D01*
X299776Y552092D02*
X281084Y533400D01*
X309824Y552092D02*
X328516Y533400D01*
X279400Y433484D02*
X279400Y431800D01*
X279400Y433484D02*
X260708Y452176D01*
X279400Y557116D02*
X279400Y558800D01*
X260708Y538424D02*
X260708Y452176D01*
X260708Y538424D02*
X279400Y557116D01*
X292100Y571500D02*
X317500Y571500D01*
X292100Y571500D02*
X279400Y584200D01*
X304800Y330200D02*
X304800Y317500D01*
X321310Y300990D01*
X341630Y300990D01*
X341630Y316230D02*
X355600Y330200D01*
X341630Y316230D02*
X341630Y300990D01*
X472384Y349608D02*
X479488Y356712D01*
X472384Y349608D02*
X463908Y349608D01*
X457200Y342900D01*
X508484Y419584D02*
X520700Y431800D01*
X508484Y419584D02*
X507619Y419584D01*
X479488Y391453D01*
X479488Y356712D01*
X482600Y317500D02*
X466090Y300990D01*
X397033Y289878D02*
X387827Y289878D01*
X376715Y300990D02*
X367030Y300990D01*
X408145Y300990D02*
X466090Y300990D01*
X387827Y289878D02*
X376715Y300990D01*
X397033Y289878D02*
X408145Y300990D01*
X509000Y554000D02*
X478800Y584200D01*
X444500Y584200D01*
X425936Y602764D01*
X425936Y667236D02*
X444500Y685800D01*
X425936Y667236D02*
X425936Y602764D01*
X63500Y190500D02*
X25400Y152400D01*
X63500Y190500D02*
X63500Y533400D01*
X50800Y546100D01*
X50800Y609600D01*
X63500Y622300D01*
X330200Y596900D02*
X342900Y584200D01*
X342900Y571500D01*
X355600Y558800D02*
X381000Y558800D01*
X355600Y558800D02*
X342900Y571500D01*
X355600Y406400D02*
X383920Y378080D01*
X430564Y378080D01*
X439476Y386992D01*
X449524Y386992D02*
X456628Y379888D01*
X456628Y379032D01*
X467360Y368300D01*
X449524Y386992D02*
X439476Y386992D01*
X341788Y469328D02*
X318612Y469328D01*
X306484Y457200D02*
X304800Y457200D01*
X306484Y457200D02*
X318612Y469328D01*
X341788Y469328D02*
X355600Y455516D01*
X355600Y406400D01*
X304800Y508000D02*
X304800Y533400D01*
X304800Y508000D02*
X330200Y482600D01*
X381000Y584200D02*
X368300Y596900D01*
X353916Y596900D01*
X335708Y615108D01*
X335224Y615592D01*
X325176Y615592D01*
X306484Y596900D02*
X304800Y596900D01*
X306484Y596900D02*
X325176Y615592D01*
X279400Y101600D02*
X241300Y101600D01*
X279400Y279400D02*
X420784Y279400D01*
X426776Y285392D01*
X438508Y285392D01*
X457200Y266700D01*
D24*
X63500Y101600D03*
D23*
X114300Y50800D01*
X114300Y25400D01*
D24*
X50800Y330200D03*
D23*
X25400Y330200D01*
D24*
X50800Y304800D03*
X50800Y76200D03*
D23*
X88900Y38100D02*
X88900Y25400D01*
X88900Y38100D02*
X50800Y76200D01*
X50800Y304800D02*
X25400Y304800D01*
M02*
