G04 EAGLE Gerber RS-274X export*
G75*
%MOMM*%
%FSLAX34Y34*%
%LPD*%
%INTop Copper*%
%IPPOS*%
%AMOC8*
5,1,8,0,0,1.08239X$1,22.5*%
G01*
%ADD10P,1.420962X8X22.500000*%
%ADD11P,1.420962X8X202.500000*%
%ADD12C,1.312800*%
%ADD13C,1.300000*%
%ADD14R,1.950000X1.950000*%
%ADD15C,1.950000*%
%ADD16R,1.500000X1.500000*%
%ADD17C,1.500000*%
%ADD18C,1.109600*%
%ADD19R,1.300000X1.300000*%
%ADD20C,1.300000*%
%ADD21C,1.524000*%
%ADD22C,1.700000*%
%ADD23P,1.420962X8X292.500000*%
%ADD24R,1.362000X1.362000*%
%ADD25C,0.762000*%
%ADD26C,0.812800*%


D10*
X152400Y558800D03*
X177800Y558800D03*
D11*
X127000Y558800D03*
X101600Y558800D03*
D12*
X533400Y197064D02*
X533400Y183936D01*
X533400Y260136D02*
X533400Y273264D01*
X508000Y273264D02*
X508000Y260136D01*
X508000Y197064D02*
X508000Y183936D01*
X412964Y368300D02*
X399836Y368300D01*
X336764Y368300D02*
X323636Y368300D01*
X444500Y374864D02*
X444500Y361736D01*
X444500Y298664D02*
X444500Y285536D01*
X450636Y443230D02*
X463764Y443230D01*
X526836Y443230D02*
X539964Y443230D01*
X539964Y419100D02*
X526836Y419100D01*
X463764Y419100D02*
X450636Y419100D01*
X330200Y273264D02*
X330200Y260136D01*
X355600Y260136D02*
X355600Y273264D01*
X355600Y336336D02*
X355600Y349464D01*
X330200Y349464D02*
X330200Y336336D01*
X381000Y273264D02*
X381000Y260136D01*
X406400Y260136D02*
X406400Y273264D01*
X381000Y336336D02*
X381000Y349464D01*
X406400Y349464D02*
X406400Y336336D01*
X285964Y533400D02*
X272836Y533400D01*
X272836Y558800D02*
X285964Y558800D01*
X285964Y685800D02*
X272836Y685800D01*
X209764Y685800D02*
X196636Y685800D01*
X272836Y584200D02*
X285964Y584200D01*
X285964Y609600D02*
X272836Y609600D01*
X272836Y660400D02*
X285964Y660400D01*
X285964Y635000D02*
X272836Y635000D01*
X209764Y660400D02*
X196636Y660400D01*
X196636Y635000D02*
X209764Y635000D01*
X209764Y609600D02*
X196636Y609600D01*
X196636Y584200D02*
X209764Y584200D01*
X209764Y558800D02*
X196636Y558800D01*
X196636Y533400D02*
X209764Y533400D01*
D13*
X374500Y584200D02*
X387500Y584200D01*
X387500Y558800D02*
X374500Y558800D01*
X374500Y533400D02*
X387500Y533400D01*
X387500Y508000D02*
X374500Y508000D01*
X450700Y508000D02*
X463700Y508000D01*
X463700Y533400D02*
X450700Y533400D01*
X450700Y584200D02*
X463700Y584200D01*
D14*
X508000Y748900D03*
D15*
X508000Y952100D03*
X50800Y850500D03*
X50800Y748900D03*
X50800Y952100D03*
D16*
X117200Y665480D03*
D17*
X117200Y640080D03*
X117200Y614680D03*
D12*
X355600Y590764D02*
X355600Y577636D01*
X355600Y514564D02*
X355600Y501436D01*
X349036Y139700D02*
X362164Y139700D01*
X425236Y139700D02*
X438364Y139700D01*
X482600Y183936D02*
X482600Y197064D01*
X482600Y260136D02*
X482600Y273264D01*
X431800Y463336D02*
X431800Y476464D01*
X431800Y400264D02*
X431800Y387136D01*
X412964Y419100D02*
X399836Y419100D01*
X336764Y419100D02*
X323636Y419100D01*
X323636Y393700D02*
X336764Y393700D01*
X399836Y393700D02*
X412964Y393700D01*
X336764Y469900D02*
X323636Y469900D01*
X399836Y469900D02*
X412964Y469900D01*
X304800Y400264D02*
X304800Y387136D01*
X304800Y463336D02*
X304800Y476464D01*
X304800Y349464D02*
X304800Y336336D01*
X304800Y273264D02*
X304800Y260136D01*
D18*
X392430Y212090D03*
X367030Y212090D03*
X341630Y212090D03*
D12*
X457200Y197064D02*
X457200Y183936D01*
X457200Y260136D02*
X457200Y273264D01*
X412964Y165100D02*
X399836Y165100D01*
X336764Y165100D02*
X323636Y165100D01*
D19*
X63500Y660400D03*
D20*
X63500Y635000D03*
X63500Y609600D03*
X63500Y584200D03*
D12*
X31964Y457200D02*
X18836Y457200D01*
X18836Y431800D02*
X31964Y431800D01*
X31964Y406400D02*
X18836Y406400D01*
X18836Y381000D02*
X31964Y381000D01*
X31964Y355600D02*
X18836Y355600D01*
X18836Y330200D02*
X31964Y330200D01*
X31964Y304800D02*
X18836Y304800D01*
X18836Y279400D02*
X31964Y279400D01*
X31964Y254000D02*
X18836Y254000D01*
X18836Y228600D02*
X31964Y228600D01*
X31964Y203200D02*
X18836Y203200D01*
X18836Y177800D02*
X31964Y177800D01*
X31964Y152400D02*
X18836Y152400D01*
X18836Y127000D02*
X31964Y127000D01*
X31964Y101600D02*
X18836Y101600D01*
X272836Y101600D02*
X285964Y101600D01*
X285964Y127000D02*
X272836Y127000D01*
X272836Y152400D02*
X285964Y152400D01*
X285964Y177800D02*
X272836Y177800D01*
X272836Y203200D02*
X285964Y203200D01*
X285964Y228600D02*
X272836Y228600D01*
X272836Y254000D02*
X285964Y254000D01*
X285964Y279400D02*
X272836Y279400D01*
X272836Y304800D02*
X285964Y304800D01*
X285964Y330200D02*
X272836Y330200D01*
X272836Y355600D02*
X285964Y355600D01*
X285964Y381000D02*
X272836Y381000D01*
X272836Y406400D02*
X285964Y406400D01*
X285964Y431800D02*
X272836Y431800D01*
X272836Y457200D02*
X285964Y457200D01*
D21*
X513080Y127000D02*
X528320Y127000D01*
X528320Y101600D02*
X513080Y101600D01*
X513080Y355600D02*
X528320Y355600D01*
X528320Y330200D02*
X513080Y330200D01*
X513080Y304800D02*
X528320Y304800D01*
X528320Y381000D02*
X513080Y381000D01*
D22*
X509000Y642900D03*
X509000Y677900D03*
X509000Y554000D03*
X509000Y589000D03*
D21*
X330200Y558800D02*
X314960Y558800D01*
X314960Y584200D02*
X330200Y584200D01*
D12*
X399836Y444500D02*
X412964Y444500D01*
X336764Y444500D02*
X323636Y444500D01*
D21*
X254000Y96520D02*
X254000Y81280D01*
X228600Y81280D02*
X228600Y96520D01*
D12*
X431800Y260136D02*
X431800Y273264D01*
X431800Y197064D02*
X431800Y183936D01*
D21*
X152400Y33020D02*
X152400Y17780D01*
X127000Y17780D02*
X127000Y33020D01*
X101600Y33020D02*
X101600Y17780D01*
X177800Y17780D02*
X177800Y33020D01*
D12*
X457200Y31536D02*
X457200Y44664D01*
X457200Y107736D02*
X457200Y120864D01*
X330200Y44664D02*
X330200Y31536D01*
X355600Y31536D02*
X355600Y44664D01*
X355600Y107736D02*
X355600Y120864D01*
X330200Y120864D02*
X330200Y107736D01*
X381000Y44664D02*
X381000Y31536D01*
X406400Y31536D02*
X406400Y44664D01*
X381000Y107736D02*
X381000Y120864D01*
X406400Y120864D02*
X406400Y107736D01*
X431800Y44664D02*
X431800Y31536D01*
X431800Y107736D02*
X431800Y120864D01*
D23*
X152400Y101600D03*
X152400Y76200D03*
X177800Y101600D03*
X177800Y76200D03*
D12*
X450636Y165100D02*
X463764Y165100D01*
X526836Y165100D02*
X539964Y165100D01*
X400264Y622300D02*
X387136Y622300D01*
X387136Y647700D02*
X400264Y647700D01*
X400264Y673100D02*
X387136Y673100D01*
X387136Y698500D02*
X400264Y698500D01*
X324064Y698500D02*
X310936Y698500D01*
X310936Y673100D02*
X324064Y673100D01*
X324064Y647700D02*
X310936Y647700D01*
X310936Y622300D02*
X324064Y622300D01*
X431800Y691936D02*
X431800Y705064D01*
X431800Y628864D02*
X431800Y615736D01*
X457200Y686856D02*
X457200Y699984D01*
X457200Y623784D02*
X457200Y610656D01*
D24*
X127000Y101600D03*
X127000Y508000D03*
D25*
X127000Y139700D02*
X127000Y101600D01*
D24*
X127000Y139700D03*
X127000Y152400D03*
D25*
X127000Y508000D01*
D24*
X101600Y508000D03*
D26*
X101600Y190500D02*
X101600Y114300D01*
D24*
X101600Y114300D03*
D25*
X101600Y190500D02*
X101600Y317500D01*
X101600Y330200D01*
D24*
X101600Y330200D03*
D25*
X101600Y508000D01*
D24*
X101600Y317500D03*
X76200Y165100D03*
X76200Y508000D03*
D25*
X76200Y304800D01*
D24*
X76200Y304800D03*
X76200Y292100D03*
D25*
X76200Y165100D01*
M02*
