G04 EAGLE Gerber RS-274X export*
G75*
%MOMM*%
%FSLAX34Y34*%
%LPD*%
%INSilkscreen Bottom*%
%IPPOS*%
%AMOC8*
5,1,8,0,0,1.08239X$1,22.5*%
G01*
%ADD10C,0.127000*%


D10*
X144145Y553384D02*
X144145Y550844D01*
X144147Y550744D01*
X144153Y550645D01*
X144163Y550545D01*
X144176Y550447D01*
X144194Y550348D01*
X144215Y550251D01*
X144240Y550155D01*
X144269Y550059D01*
X144302Y549965D01*
X144338Y549872D01*
X144378Y549781D01*
X144422Y549691D01*
X144469Y549603D01*
X144519Y549517D01*
X144573Y549433D01*
X144630Y549351D01*
X144690Y549272D01*
X144754Y549194D01*
X144820Y549120D01*
X144889Y549048D01*
X144961Y548979D01*
X145035Y548913D01*
X145113Y548849D01*
X145192Y548789D01*
X145274Y548732D01*
X145358Y548678D01*
X145444Y548628D01*
X145532Y548581D01*
X145622Y548537D01*
X145713Y548497D01*
X145806Y548461D01*
X145900Y548428D01*
X145996Y548399D01*
X146092Y548374D01*
X146189Y548353D01*
X146288Y548335D01*
X146386Y548322D01*
X146486Y548312D01*
X146585Y548306D01*
X146685Y548304D01*
X153035Y548304D01*
X153135Y548306D01*
X153234Y548312D01*
X153334Y548322D01*
X153432Y548335D01*
X153531Y548353D01*
X153628Y548374D01*
X153724Y548399D01*
X153820Y548428D01*
X153914Y548461D01*
X154007Y548497D01*
X154098Y548537D01*
X154188Y548581D01*
X154276Y548628D01*
X154362Y548678D01*
X154446Y548732D01*
X154528Y548789D01*
X154607Y548849D01*
X154685Y548913D01*
X154759Y548979D01*
X154831Y549048D01*
X154900Y549120D01*
X154966Y549194D01*
X155030Y549272D01*
X155090Y549351D01*
X155147Y549433D01*
X155201Y549517D01*
X155251Y549603D01*
X155298Y549691D01*
X155342Y549781D01*
X155382Y549872D01*
X155418Y549965D01*
X155451Y550059D01*
X155480Y550155D01*
X155505Y550251D01*
X155526Y550348D01*
X155544Y550447D01*
X155557Y550545D01*
X155567Y550645D01*
X155573Y550744D01*
X155575Y550844D01*
X155575Y553384D01*
X155576Y561359D02*
X155574Y561463D01*
X155568Y561568D01*
X155559Y561672D01*
X155546Y561775D01*
X155528Y561878D01*
X155508Y561980D01*
X155483Y562082D01*
X155455Y562182D01*
X155423Y562282D01*
X155387Y562380D01*
X155348Y562477D01*
X155306Y562572D01*
X155260Y562666D01*
X155210Y562758D01*
X155158Y562848D01*
X155102Y562936D01*
X155042Y563022D01*
X154980Y563106D01*
X154915Y563187D01*
X154847Y563266D01*
X154775Y563343D01*
X154702Y563416D01*
X154625Y563488D01*
X154546Y563556D01*
X154465Y563621D01*
X154381Y563683D01*
X154295Y563743D01*
X154207Y563799D01*
X154117Y563851D01*
X154025Y563901D01*
X153931Y563947D01*
X153836Y563989D01*
X153739Y564028D01*
X153641Y564064D01*
X153541Y564096D01*
X153441Y564124D01*
X153339Y564149D01*
X153237Y564169D01*
X153134Y564187D01*
X153031Y564200D01*
X152927Y564209D01*
X152822Y564215D01*
X152718Y564217D01*
X155575Y561359D02*
X155573Y561241D01*
X155567Y561122D01*
X155558Y561004D01*
X155545Y560887D01*
X155527Y560770D01*
X155507Y560653D01*
X155482Y560537D01*
X155454Y560422D01*
X155421Y560309D01*
X155386Y560196D01*
X155346Y560084D01*
X155304Y559974D01*
X155257Y559865D01*
X155207Y559757D01*
X155154Y559652D01*
X155097Y559548D01*
X155037Y559446D01*
X154974Y559346D01*
X154907Y559248D01*
X154838Y559152D01*
X154765Y559059D01*
X154689Y558968D01*
X154611Y558879D01*
X154529Y558793D01*
X154445Y558710D01*
X154359Y558629D01*
X154269Y558552D01*
X154178Y558477D01*
X154084Y558405D01*
X153987Y558336D01*
X153889Y558271D01*
X153788Y558208D01*
X153685Y558149D01*
X153581Y558093D01*
X153475Y558041D01*
X153367Y557992D01*
X153258Y557947D01*
X153147Y557905D01*
X153035Y557867D01*
X150496Y563264D02*
X150571Y563340D01*
X150650Y563415D01*
X150731Y563486D01*
X150815Y563555D01*
X150901Y563620D01*
X150989Y563682D01*
X151079Y563742D01*
X151171Y563798D01*
X151266Y563851D01*
X151362Y563900D01*
X151460Y563946D01*
X151559Y563989D01*
X151660Y564028D01*
X151762Y564063D01*
X151865Y564095D01*
X151969Y564123D01*
X152074Y564148D01*
X152181Y564169D01*
X152287Y564186D01*
X152394Y564199D01*
X152502Y564208D01*
X152610Y564214D01*
X152718Y564216D01*
X150495Y563264D02*
X144145Y557866D01*
X144145Y564216D01*
M02*
