G04 EAGLE Gerber RS-274X export*
G75*
%MOMM*%
%FSLAX34Y34*%
%LPD*%
%INSoldermask Bottom*%
%IPPOS*%
%AMOC8*
5,1,8,0,0,1.08239X$1,22.5*%
G01*
%ADD10C,3.703200*%
%ADD11P,1.640903X8X202.500000*%
%ADD12C,1.516000*%
%ADD13C,1.503200*%
%ADD14R,2.233200X2.233200*%
%ADD15C,2.233200*%
%ADD16R,1.703200X1.703200*%
%ADD17C,1.703200*%
%ADD18C,1.312800*%
%ADD19R,1.503200X1.503200*%
%ADD20C,1.503200*%
%ADD21C,1.727200*%
%ADD22C,1.903200*%
%ADD23P,1.640903X8X112.500000*%
%ADD24R,1.616000X1.616000*%


D10*
X25400Y25400D03*
X523240Y25400D03*
X25400Y1016000D03*
X523240Y1016000D03*
D11*
X63500Y698500D03*
X38100Y698500D03*
X127000Y558800D03*
X101600Y558800D03*
D12*
X533400Y273264D02*
X533400Y260136D01*
X533400Y336336D02*
X533400Y349464D01*
X508000Y349464D02*
X508000Y336336D01*
X508000Y273264D02*
X508000Y260136D01*
X412964Y431800D02*
X399836Y431800D01*
X336764Y431800D02*
X323636Y431800D01*
X444500Y437936D02*
X444500Y451064D01*
X444500Y374864D02*
X444500Y361736D01*
X455930Y539536D02*
X455930Y552664D01*
X455930Y476464D02*
X455930Y463336D01*
X467360Y451064D02*
X467360Y437936D01*
X467360Y374864D02*
X467360Y361736D01*
X330200Y336764D02*
X330200Y323636D01*
X355600Y323636D02*
X355600Y336764D01*
X355600Y399836D02*
X355600Y412964D01*
X330200Y412964D02*
X330200Y399836D01*
X381000Y336764D02*
X381000Y323636D01*
X406400Y323636D02*
X406400Y336764D01*
X381000Y399836D02*
X381000Y412964D01*
X406400Y412964D02*
X406400Y399836D01*
X330200Y133564D02*
X330200Y120436D01*
X355600Y120436D02*
X355600Y133564D01*
X355600Y196636D02*
X355600Y209764D01*
X330200Y209764D02*
X330200Y196636D01*
X381000Y133564D02*
X381000Y120436D01*
X406400Y120436D02*
X406400Y133564D01*
X381000Y196636D02*
X381000Y209764D01*
X406400Y209764D02*
X406400Y196636D01*
X285964Y533400D02*
X272836Y533400D01*
X272836Y558800D02*
X285964Y558800D01*
X285964Y685800D02*
X272836Y685800D01*
X209764Y685800D02*
X196636Y685800D01*
X272836Y584200D02*
X285964Y584200D01*
X285964Y609600D02*
X272836Y609600D01*
X272836Y660400D02*
X285964Y660400D01*
X285964Y635000D02*
X272836Y635000D01*
X209764Y660400D02*
X196636Y660400D01*
X196636Y635000D02*
X209764Y635000D01*
X209764Y609600D02*
X196636Y609600D01*
X196636Y584200D02*
X209764Y584200D01*
X209764Y558800D02*
X196636Y558800D01*
X196636Y533400D02*
X209764Y533400D01*
D13*
X361800Y685800D02*
X374800Y685800D01*
X374800Y660400D02*
X361800Y660400D01*
X361800Y635000D02*
X374800Y635000D01*
X374800Y609600D02*
X361800Y609600D01*
X438000Y609600D02*
X451000Y609600D01*
X451000Y635000D02*
X438000Y635000D01*
X438000Y685800D02*
X451000Y685800D01*
D14*
X508000Y748900D03*
D15*
X508000Y952100D03*
X50800Y850500D03*
X50800Y748900D03*
X50800Y952100D03*
D16*
X117200Y660400D03*
D17*
X117200Y635000D03*
X117200Y609600D03*
D12*
X330200Y666536D02*
X330200Y679664D01*
X330200Y603464D02*
X330200Y590336D01*
X323636Y254000D02*
X336764Y254000D01*
X399836Y254000D02*
X412964Y254000D01*
X431800Y260136D02*
X431800Y273264D01*
X431800Y336336D02*
X431800Y349464D01*
X412964Y508000D02*
X399836Y508000D01*
X336764Y508000D02*
X323636Y508000D01*
X399836Y457200D02*
X412964Y457200D01*
X336764Y457200D02*
X323636Y457200D01*
X431800Y539536D02*
X431800Y552664D01*
X431800Y476464D02*
X431800Y463336D01*
X412964Y482600D02*
X399836Y482600D01*
X336764Y482600D02*
X323636Y482600D01*
X399836Y533400D02*
X412964Y533400D01*
X336764Y533400D02*
X323636Y533400D01*
X304800Y412964D02*
X304800Y399836D01*
X304800Y336764D02*
X304800Y323636D01*
D18*
X392430Y300990D03*
X367030Y300990D03*
X341630Y300990D03*
D12*
X482600Y247864D02*
X482600Y234736D01*
X482600Y310936D02*
X482600Y324064D01*
X412964Y50800D02*
X399836Y50800D01*
X336764Y50800D02*
X323636Y50800D01*
X323636Y76200D02*
X336764Y76200D01*
X399836Y76200D02*
X412964Y76200D01*
X336764Y101600D02*
X323636Y101600D01*
X399836Y101600D02*
X412964Y101600D01*
X412964Y228600D02*
X399836Y228600D01*
X336764Y228600D02*
X323636Y228600D01*
D19*
X63500Y647700D03*
D20*
X63500Y622300D03*
X63500Y596900D03*
X63500Y571500D03*
D12*
X31964Y457200D02*
X18836Y457200D01*
X18836Y431800D02*
X31964Y431800D01*
X31964Y406400D02*
X18836Y406400D01*
X18836Y381000D02*
X31964Y381000D01*
X31964Y355600D02*
X18836Y355600D01*
X18836Y330200D02*
X31964Y330200D01*
X31964Y304800D02*
X18836Y304800D01*
X18836Y279400D02*
X31964Y279400D01*
X31964Y254000D02*
X18836Y254000D01*
X18836Y228600D02*
X31964Y228600D01*
X31964Y203200D02*
X18836Y203200D01*
X18836Y177800D02*
X31964Y177800D01*
X31964Y152400D02*
X18836Y152400D01*
X18836Y127000D02*
X31964Y127000D01*
X31964Y101600D02*
X18836Y101600D01*
X272836Y101600D02*
X285964Y101600D01*
X285964Y127000D02*
X272836Y127000D01*
X272836Y152400D02*
X285964Y152400D01*
X285964Y177800D02*
X272836Y177800D01*
X272836Y203200D02*
X285964Y203200D01*
X285964Y228600D02*
X272836Y228600D01*
X272836Y254000D02*
X285964Y254000D01*
X285964Y279400D02*
X272836Y279400D01*
X272836Y304800D02*
X285964Y304800D01*
X285964Y330200D02*
X272836Y330200D01*
X272836Y355600D02*
X285964Y355600D01*
X285964Y381000D02*
X272836Y381000D01*
X272836Y406400D02*
X285964Y406400D01*
X285964Y431800D02*
X272836Y431800D01*
X272836Y457200D02*
X285964Y457200D01*
D21*
X513080Y165100D02*
X528320Y165100D01*
X528320Y139700D02*
X513080Y139700D01*
X513080Y431800D02*
X528320Y431800D01*
X528320Y406400D02*
X513080Y406400D01*
X513080Y381000D02*
X528320Y381000D01*
X528320Y457200D02*
X513080Y457200D01*
D22*
X509000Y642900D03*
X509000Y677900D03*
X509000Y554000D03*
X509000Y589000D03*
D21*
X342900Y579120D02*
X342900Y563880D01*
X317500Y563880D02*
X317500Y579120D01*
D12*
X304800Y590336D02*
X304800Y603464D01*
X304800Y666536D02*
X304800Y679664D01*
X304800Y539964D02*
X304800Y526836D01*
X304800Y463764D02*
X304800Y450636D01*
D23*
X381000Y558800D03*
X381000Y584200D03*
D21*
X241300Y109220D02*
X241300Y93980D01*
X215900Y93980D02*
X215900Y109220D01*
D12*
X457200Y336336D02*
X457200Y349464D01*
X457200Y273264D02*
X457200Y260136D01*
D21*
X139700Y33020D02*
X139700Y17780D01*
X114300Y17780D02*
X114300Y33020D01*
X88900Y33020D02*
X88900Y17780D01*
X165100Y17780D02*
X165100Y33020D01*
D24*
X88900Y127000D03*
X88900Y266700D03*
X114300Y101600D03*
X114300Y241300D03*
X114300Y533400D03*
X101600Y190500D03*
X101600Y393700D03*
X12700Y698500D03*
X76200Y292100D03*
X76200Y165100D03*
X63500Y101600D03*
X50800Y330200D03*
X50800Y304800D03*
X50800Y76200D03*
M02*
